# xmcd CD database file
# Copyright (C) 1996 Ti Kan
#
# Track frame offsets:
# 	182
# 	10082
# 	23282
# 	34532
# 	48107
# 	60107
# 	71877
# 	82755
# 	93855
# 	106380
# 	120557
#
# Disc length: 1749 seconds
#
# Revision: 1
# Processed by: cddbd v1.4b41PL1 Copyright (c) Steve Scherf et al.
# Submitted via: DiscPlay 3.4.1
#
DISCID=6c06d30b
DTITLE=Boxcar Willie - Boxcar Willie-Best Loved Favorites
DYEAR=1900
DGENRE=
TTITLE0=Blue Moon of Kentucky
TTITLE1=Crazy Arms
TTITLE2=In The Jailhouse Now
TTITLE3=I Won't Get Over You
TTITLE4=Six Days on the Road
TTITLE5=Wings of a Dove
TTITLE6=Pistol Packin' Mama
TTITLE7=Half as Much
TTITLE8=Whistle Ain't Made of Gold
TTITLE9=Almost Persuaded
TTITLE10=Louisiana Saturday Night
EXTD=
EXTT0=(Monroe) Peer International Corp./BMI
EXTT1=(Seals/Mooney) Champion Music c/o MCA/Tree Pub./BMI
EXTT2=(J. Rodgers) Peer International Corp./BMI
EXTT3=(Lloene Martin) Miz Box Publishing/ASCAP
EXTT4=(Green/Montgomery) Southern Arts Music/Tune Publishers Inc./BMI
EXTT5=(Ferguson) Husky Music/Larrick Music Co. c/o Southern Arts Music/BMI
EXTT6=(Al Dexter) Songs of Polygram International Inc./ASCAP
EXTT7=(C. Williams) Acuff-Rose Music Inc./BMI
EXTT8=(Lloene Martin) Miz Box Publishing/ASCAP
EXTT9=(G. Sutton/B. Sherrill) Al Gallico Music c/o Columbia Music/BMI
EXTT10=(B. McDill) Polygram International Publishing Inc./ASCAP
PLAYORDER=
